<svg width="512" height="512" viewBox="0 0 512 512" xmlns="http://www.w3.org/2000/svg">
<defs>
  <linearGradient id="bg" x1="0" y1="0" x2="0.6" y2="1">
    <stop offset="0%" stop-color="#0b1e3a"/>
    <stop offset="100%" stop-color="#071428"/>
  </linearGradient>
  <linearGradient id="goldg" x1="0" y1="0" x2="0" y2="1">
    <stop offset="0%" stop-color="#f0cc5a"/>
    <stop offset="100%" stop-color="#b8860b"/>
  </linearGradient>
  <linearGradient id="silverFork" x1="0" y1="0" x2="1" y2="1">
    <stop offset="0%" stop-color="#dde4f0"/>
    <stop offset="100%" stop-color="#9aa8c0"/>
  </linearGradient>
</defs>

<!-- Background -->
<rect x="0" y="0" width="512" height="512" rx="100" fill="url(#bg)"/>
<rect x="0" y="0" width="512" height="512" rx="100" fill="none" stroke="#d4af37" stroke-width="2" opacity="0.35"/>

<!-- PLATE -->
<ellipse cx="256" cy="346" rx="168" ry="22" fill="#000" opacity="0.25"/>
<ellipse cx="256" cy="335" rx="165" ry="22" fill="none" stroke="url(#goldg)" stroke-width="3.5"/>
<ellipse cx="256" cy="325" rx="158" ry="17" fill="#0e2040" stroke="#d4af37" stroke-width="2"/>
<ellipse cx="256" cy="323" rx="124" ry="12" fill="none" stroke="#d4af37" stroke-width="0.9" opacity="0.4"/>

<!-- FORK -->
<g transform="translate(188,108)">
  <rect x="17" y="130" width="14" height="90" rx="7" fill="url(#silverFork)"/>
  <rect x="18.5" y="108" width="11" height="26" rx="5" fill="url(#silverFork)"/>
  <rect x="10" y="55" width="28" height="57" rx="3" fill="url(#silverFork)"/>
  <rect x="15.5" y="57" width="5.5" height="48" rx="3" fill="#091828"/>
  <rect x="24.5" y="57" width="5.5" height="48" rx="3" fill="#091828"/>
  <rect x="10" y="42" width="7" height="16" rx="3.5" fill="url(#silverFork)"/>
  <rect x="20.5" y="42" width="7" height="16" rx="3.5" fill="url(#silverFork)"/>
  <rect x="31" y="42" width="7" height="16" rx="3.5" fill="url(#silverFork)"/>
  <rect x="22" y="133" width="3.5" height="65" rx="1.5" fill="#fff" opacity="0.16"/>
</g>

<!-- KNIFE -->
<g transform="translate(318,108)">
  <rect x="-7" y="130" width="14" height="90" rx="7" fill="url(#silverFork)"/>
  <rect x="-7" y="120" width="14" height="13" rx="2" fill="#8899b0"/>
  <path d="M-3,44 Q4,26 5,120 L-7,120 Z" fill="url(#silverFork)"/>
  <path d="M3,54 Q5,75 5,118" fill="none" stroke="#fff" stroke-width="0.9" opacity="0.22"/>
  <rect x="-2" y="133" width="3.5" height="65" rx="1.5" fill="#fff" opacity="0.16"/>
</g>

<!-- ECG HEARTBEAT LINE -->
<polyline points="88,292 122,292 140,272 153,316 168,245 183,330 197,283 216,292 378,292" fill="none" stroke="#e53935" stroke-width="3.5" stroke-linecap="round" stroke-linejoin="round"/>
<polyline points="88,292 122,292 140,272 153,316 168,245 183,330 197,283 216,292 378,292" fill="none" stroke="#ff8a80" stroke-width="1.2" stroke-linecap="round" stroke-linejoin="round" opacity="0.45"/>

<!-- BACTERIA main (top right) -->
<g transform="translate(395,155)">
  <ellipse cx="0" cy="0" rx="30" ry="21" fill="#0d2e1a" stroke="#2ec951" stroke-width="2.5"/>
  <path d="M30,0 Q48,-13 42,-30" fill="none" stroke="#2ec951" stroke-width="2" stroke-linecap="round"/>
  <path d="M30,5 Q52,10 50,26" fill="none" stroke="#2ec951" stroke-width="2" stroke-linecap="round"/>
  <path d="M-30,0 Q-48,-10 -44,-26" fill="none" stroke="#2ec951" stroke-width="2" stroke-linecap="round"/>
  <path d="M-30,5 Q-50,9 -48,24" fill="none" stroke="#2ec951" stroke-width="2" stroke-linecap="round"/>
  <path d="M0,-21 Q10,-35 3,-46" fill="none" stroke="#2ec951" stroke-width="2" stroke-linecap="round"/>
  <path d="M9,-18 Q24,-32 20,-44" fill="none" stroke="#2ec951" stroke-width="1.7" stroke-linecap="round"/>
  <ellipse cx="0" cy="0" rx="10" ry="7.5" fill="none" stroke="#2ec951" stroke-width="1.6" opacity="0.85"/>
  <circle cx="-12" cy="-4" r="3.5" fill="#2ec951" opacity="0.75"/>
  <circle cx="7" cy="6" r="3" fill="#2ec951" opacity="0.7"/>
  <circle cx="15" cy="-7" r="2.5" fill="#2ec951" opacity="0.65"/>
  <circle cx="-4" cy="9" r="2.5" fill="#2ec951" opacity="0.65"/>
  <circle cx="2" cy="-11" r="2" fill="#2ec951" opacity="0.55"/>
</g>

<!-- BACTERIA small (bottom left) -->
<g transform="translate(126,208) scale(0.55) rotate(-25)">
  <ellipse cx="0" cy="0" rx="30" ry="21" fill="#0d2e1a" stroke="#2ec951" stroke-width="2.5"/>
  <path d="M30,0 Q48,-12 42,-28" fill="none" stroke="#2ec951" stroke-width="2" stroke-linecap="round"/>
  <path d="M-30,0 Q-48,9 -44,24" fill="none" stroke="#2ec951" stroke-width="2" stroke-linecap="round"/>
  <path d="M0,-21 Q10,-35 3,-46" fill="none" stroke="#2ec951" stroke-width="2" stroke-linecap="round"/>
  <ellipse cx="0" cy="0" rx="10" ry="7.5" fill="none" stroke="#2ec951" stroke-width="1.6" opacity="0.85"/>
  <circle cx="-11" cy="-3" r="3.5" fill="#2ec951" opacity="0.7"/>
  <circle cx="8" cy="5" r="2.5" fill="#2ec951" opacity="0.65"/>
</g>

<!-- GOLD CROSS -->
<rect x="108" y="120" width="13" height="42" rx="5.5" fill="url(#goldg)"/>
<rect x="93" y="135" width="43" height="13" rx="5.5" fill="url(#goldg)"/>

<!-- DECORATIVE DOTS -->
<circle cx="116" cy="318" r="2.5" fill="#d4af37" opacity="0.38"/>
<circle cx="396" cy="318" r="2.5" fill="#d4af37" opacity="0.38"/>

<!-- APP NAME -->
<text x="256" y="390"
  text-anchor="middle"
  font-family="Tajawal,Cairo,Arial,sans-serif"
  font-size="36"
  font-weight="900"
  fill="url(#goldg)"
  letter-spacing="1">نظام الطيبات</text>
<line x1="148" y1="400" x2="364" y2="400" stroke="#d4af37" stroke-width="0.9" opacity="0.35"/>

<!-- subtle dots decoration under text -->
<circle cx="194" cy="414" r="2" fill="#d4af37" opacity="0.4"/>
<circle cx="256" cy="414" r="2.5" fill="#d4af37" opacity="0.5"/>
<circle cx="318" cy="414" r="2" fill="#d4af37" opacity="0.4"/>

</svg>
